<?xml version="1.0" encoding="utf-8"?>
<!-- Generator: Adobe Illustrator 24.1.2, SVG Export Plug-In . SVG Version: 6.00 Build 0)  -->
<svg version="1.1" id="Camada_1" xmlns="http://www.w3.org/2000/svg" xmlns:xlink="http://www.w3.org/1999/xlink" x="0px" y="0px"
	 viewBox="0 0 122 100" style="enable-background:new 0 0 122 100;" xml:space="preserve">
<style type="text/css">
	.st0{fill:#506175;}
</style>
<path class="st0" d="M110.23,70.6c0-0.05-0.01-0.09-0.01-0.14v-0.25c0-1.39-0.28-2.71-0.79-3.92l-4.82-25.06
	c-0.06-0.31-0.2-0.6-0.38-0.84V21.07c0-5.52-4.49-10-10.01-10H25.6c-5.52,0-10.01,4.49-10.01,10V40.4
	c-0.19,0.24-0.32,0.53-0.38,0.84L10.54,66c-0.59,1.29-0.93,2.71-0.93,4.22v1.23v8.32v10.95h4v-8.95h92.61v8.95h4V79.77v-8.32V70.7
	C110.22,70.67,110.23,70.63,110.23,70.6z M19.6,21.07c0-3.31,2.69-6,6.01-6h68.62c3.31,0,6.01,2.69,6.01,6v18.55h-6.15
	c0.01-0.17,0.03-0.34,0.03-0.51v-7.7c0-3.35-2.73-6.08-6.08-6.08H69.4c-3.35,0-6.08,2.73-6.08,6.08v7.7c0,0.17,0.01,0.34,0.03,0.51
	h-6.87c0.01-0.17,0.03-0.34,0.03-0.51v-7.7c0-3.35-2.73-6.08-6.08-6.08H31.79c-3.35,0-6.08,2.73-6.08,6.08v7.7
	c0,0.17,0.01,0.34,0.03,0.51H19.6V21.07z M13.61,77.77v-6.32v-1.23c0-3.37,2.74-6.12,6.12-6.12h80.38c3.37,0,6.12,2.74,6.12,6.12
	v1.23v6.32H13.61z"/>
</svg>
